<mxfile host="app.diagrams.net" modified="2024-01-24T06:47:15.928Z" agent="Mozilla/5.0 (Windows NT 10.0; Win64; x64) AppleWebKit/537.36 (KHTML, like Gecko) Chrome/120.0.0.0 Safari/537.36 Edg/120.0.0.0" etag="sNLErf3UgBZZ32lqlSGu" version="23.0.0" type="github">
  <diagram name="第 1 页" id="NNUS12JeYf8y93WOMV1w">
    <mxGraphModel dx="1426" dy="751" grid="1" gridSize="10" guides="1" tooltips="1" connect="1" arrows="1" fold="1" page="1" pageScale="1" pageWidth="827" pageHeight="1169" math="0" shadow="0">
      <root>
        <mxCell id="0" />
        <mxCell id="1" parent="0" />
        <mxCell id="LqdV4zVSjsWjxpmhPlHb-7" style="edgeStyle=orthogonalEdgeStyle;rounded=0;orthogonalLoop=1;jettySize=auto;html=1;exitX=0.5;exitY=0.5;exitDx=0;exitDy=0;exitPerimeter=0;entryX=0.5;entryY=1;entryDx=0;entryDy=0;" edge="1" parent="1" source="LqdV4zVSjsWjxpmhPlHb-1" target="LqdV4zVSjsWjxpmhPlHb-6">
          <mxGeometry relative="1" as="geometry" />
        </mxCell>
        <mxCell id="LqdV4zVSjsWjxpmhPlHb-1" value="车端" style="shape=umlActor;verticalLabelPosition=bottom;verticalAlign=top;html=1;outlineConnect=0;" vertex="1" parent="1">
          <mxGeometry x="50" y="30" width="30" height="60" as="geometry" />
        </mxCell>
        <mxCell id="LqdV4zVSjsWjxpmhPlHb-8" style="edgeStyle=orthogonalEdgeStyle;rounded=0;orthogonalLoop=1;jettySize=auto;html=1;exitX=0.5;exitY=0.5;exitDx=0;exitDy=0;exitPerimeter=0;entryX=0.5;entryY=1;entryDx=0;entryDy=0;" edge="1" parent="1" source="LqdV4zVSjsWjxpmhPlHb-3" target="LqdV4zVSjsWjxpmhPlHb-6">
          <mxGeometry relative="1" as="geometry" />
        </mxCell>
        <mxCell id="LqdV4zVSjsWjxpmhPlHb-3" value="车端" style="shape=umlActor;verticalLabelPosition=bottom;verticalAlign=top;html=1;outlineConnect=0;" vertex="1" parent="1">
          <mxGeometry x="50" y="140" width="30" height="60" as="geometry" />
        </mxCell>
        <mxCell id="LqdV4zVSjsWjxpmhPlHb-9" style="edgeStyle=orthogonalEdgeStyle;rounded=0;orthogonalLoop=1;jettySize=auto;html=1;exitX=0.5;exitY=0.5;exitDx=0;exitDy=0;exitPerimeter=0;entryX=0.5;entryY=1;entryDx=0;entryDy=0;" edge="1" parent="1" source="LqdV4zVSjsWjxpmhPlHb-4" target="LqdV4zVSjsWjxpmhPlHb-6">
          <mxGeometry relative="1" as="geometry" />
        </mxCell>
        <mxCell id="LqdV4zVSjsWjxpmhPlHb-4" value="车端" style="shape=umlActor;verticalLabelPosition=bottom;verticalAlign=top;html=1;outlineConnect=0;" vertex="1" parent="1">
          <mxGeometry x="50" y="250" width="30" height="60" as="geometry" />
        </mxCell>
        <mxCell id="LqdV4zVSjsWjxpmhPlHb-6" value="采集接口" style="rounded=1;whiteSpace=wrap;html=1;rotation=90;" vertex="1" parent="1">
          <mxGeometry x="20" y="140" width="290" height="60" as="geometry" />
        </mxCell>
        <mxCell id="LqdV4zVSjsWjxpmhPlHb-12" value="" style="shape=singleArrow;whiteSpace=wrap;html=1;" vertex="1" parent="1">
          <mxGeometry x="200" y="70" width="70" height="30" as="geometry" />
        </mxCell>
        <mxCell id="LqdV4zVSjsWjxpmhPlHb-13" value="" style="shape=singleArrow;whiteSpace=wrap;html=1;" vertex="1" parent="1">
          <mxGeometry x="200" y="150" width="70" height="30" as="geometry" />
        </mxCell>
        <mxCell id="LqdV4zVSjsWjxpmhPlHb-14" value="" style="shape=singleArrow;whiteSpace=wrap;html=1;" vertex="1" parent="1">
          <mxGeometry x="200" y="230" width="70" height="30" as="geometry" />
        </mxCell>
        <mxCell id="LqdV4zVSjsWjxpmhPlHb-16" value="FileBeat&lt;br&gt;" style="text;html=1;align=center;verticalAlign=middle;resizable=0;points=[];autosize=1;strokeColor=none;fillColor=none;" vertex="1" parent="1">
          <mxGeometry x="195" y="130" width="70" height="30" as="geometry" />
        </mxCell>
        <mxCell id="LqdV4zVSjsWjxpmhPlHb-17" value="FileBeat&lt;br&gt;" style="text;html=1;align=center;verticalAlign=middle;resizable=0;points=[];autosize=1;strokeColor=none;fillColor=none;" vertex="1" parent="1">
          <mxGeometry x="195" y="50" width="70" height="30" as="geometry" />
        </mxCell>
        <mxCell id="LqdV4zVSjsWjxpmhPlHb-18" value="FileBeat&lt;br&gt;" style="text;html=1;align=center;verticalAlign=middle;resizable=0;points=[];autosize=1;strokeColor=none;fillColor=none;" vertex="1" parent="1">
          <mxGeometry x="195" y="210" width="70" height="30" as="geometry" />
        </mxCell>
      </root>
    </mxGraphModel>
  </diagram>
</mxfile>
